<svg width="1440" height="1024" viewBox="0 0 1440 1024" fill="none" xmlns="http://www.w3.org/2000/svg">
<path d="M1813 1145.5C1813 1337.38 1654.32 1493 1458.5 1493C1262.68 1493 1104 1337.38 1104 1145.5C1104 953.618 1262.68 798 1458.5 798C1654.32 798 1813 953.618 1813 1145.5Z" stroke="#B2B2B2" stroke-width="4"/>
<path d="M1100 264.5C1100 456.408 943.534 612 750.5 612C557.466 612 401 456.408 401 264.5C401 72.5918 557.466 -83 750.5 -83C943.534 -83 1100 72.5918 1100 264.5Z" stroke="#B2B2B2" stroke-width="4"/>
<circle cx="500.5" cy="473.5" r="7.5" fill="#1E1E1E"/>
<path d="M2077 332C2077 600.399 1858.08 818 1588 818C1317.92 818 1099 600.399 1099 332C1099 63.6012 1317.92 -154 1588 -154C1858.08 -154 2077 63.6012 2077 332Z" stroke="#B2B2B2" stroke-width="4"/>
<circle cx="1136.5" cy="272.5" r="7.5" fill="#1E1E1E"/>
<path d="M1127 963.5C1127 1155.38 968.323 1311 772.5 1311C576.677 1311 418 1155.38 418 963.5C418 771.618 576.677 616 772.5 616C968.323 616 1127 771.618 1127 963.5Z" stroke="#B2B2B2" stroke-width="4"/>
<circle cx="1104.5" cy="993.5" r="7.5" fill="#1E1E1E"/>
<path d="M438 800.5C438 992.382 279.323 1148 83.5 1148C-112.323 1148 -271 992.382 -271 800.5C-271 608.618 -112.323 453 83.5 453C279.323 453 438 608.618 438 800.5Z" stroke="#B2B2B2" stroke-width="4"/>
<circle cx="229.5" cy="519.5" r="7.5" fill="#1E1E1E"/>
<path d="M414 101.5C414 293.382 255.323 449 59.5 449C-136.323 449 -295 293.382 -295 101.5C-295 -90.3817 -136.323 -246 59.5 -246C255.323 -246 414 -90.3817 414 101.5Z" stroke="#B2B2B2" stroke-width="4"/>
<circle cx="290.5" cy="339.5" r="7.5" fill="#1E1E1E"/>
</svg>
